<svg xmlns="http://www.w3.org/2000/svg" viewBox="0 0 648 198"><path d="M593.28 114.46c-6.71 12.03-15.27 20.36-30.53 20.36-17.81 0-30.3-14.8-30.3-35.85v-.46c0-19.43 12.03-35.39 30.3-35.39 14.8 0 23.36 8.1 29.38 19.66l51.07-29.82C628.36 26.06 602.22 7.2 563.49 7.2c-52.55 0-93.53 39.22-93.53 91.77v.5c0 54.56 42.49 91.27 91.27 91.27 43.75 0 68.39-21.37 83.23-47.52l-51.17-28.75zM399.08 7.53h59.96V190.9h-59.96z" fill="#005493"/><path d="M290.63 111l29.46 79.68 73.35-183.3h-66.48L290.63 111z" fill="#26a739"/><path d="M261.32 190.68h58.77L290.63 111l-29.31 79.68z" fill="#f5aa1c"/><path d="M255.01 7.37h-67.14l73.45 183.31L290.63 111 255.01 7.37zm-133.7 99.58c0 21.78-11.53 30.49-27.67 30.49s-27.67-9.48-27.67-31.77V7.53H4.98v98.91c0 59.45 34.59 84.05 88.15 84.05s89.17-24.09 89.17-85.33V7.53h-60.98v99.42z" fill="#005493"/></svg>